<?xml version="1.0" encoding="UTF-8" standalone="no"?>
<svg xmlns="http://www.w3.org/2000/svg" version="1.1" viewBox="0 0 500 500">
<g>
<path d="m480 250a230 230 0 0 1 -230 230 230 230 0 0 1 -230 -230 230 230 0 0 1 230 -230 230 230 0 0 1 230 230z" fill="#ff6d2d"/>
<path d="m225 85l-141 141 63 41 24-24 63 134c56-6 112-2 153 39l11-11-115-115a8.71 10 45 0 1 -9 -2 8.71 10 45 0 1 1 -13 8.71 10 45 0 1 13 -1 8.71 10 45 0 1 2 9l115 115 11-10c-45-44-47-100-42-155l-134-63 25-25-40-60z" fill-rule="evenodd" fill="#fff"/>
</g>
</svg>
